<svg width="20" height="21" viewBox="0 0 20 21" fill="none" xmlns="http://www.w3.org/2000/svg">
<path d="M4.57916 6.89941H0.449219V20.0696H4.57916V6.89941Z" fill="white"/>
<path d="M15.7528 6.61407C15.6005 6.59504 15.4388 6.58552 15.277 6.576C12.9646 6.48084 11.6609 7.85115 11.2042 8.44114C11.0805 8.60291 11.0234 8.69807 11.0234 8.69807V6.93761H7.07422V20.1077H11.0234H11.2042C11.2042 18.766 11.2042 17.4338 11.2042 16.092C11.2042 15.3688 11.2042 14.6456 11.2042 13.9224C11.2042 13.0278 11.1376 12.0762 11.5848 11.2579C11.9654 10.5727 12.6506 10.2301 13.4214 10.2301C15.7052 10.2301 15.7528 12.2951 15.7528 12.4854C15.7528 12.495 15.7528 12.5045 15.7528 12.5045V20.1648H19.8827V11.5719C19.8827 8.63146 18.3887 6.89955 15.7528 6.61407Z" fill="white"/>
<path d="M2.51521 5.19596C3.83961 5.19596 4.91325 4.12233 4.91325 2.79793C4.91325 1.47354 3.83961 0.399902 2.51521 0.399902C1.19082 0.399902 0.117188 1.47354 0.117188 2.79793C0.117188 4.12233 1.19082 5.19596 2.51521 5.19596Z" fill="white"/>
</svg>
