<svg width="690" height="498" viewBox="0 0 690 498" fill="none" xmlns="http://www.w3.org/2000/svg">
<path d="M664.889 380.24C661.707 391.316 650.018 399.113 630.959 403.455C611.966 407.781 585.979 408.594 554.807 406.007C492.478 400.834 409.649 382.088 321.109 350.977C232.569 319.866 155.148 282.303 101.552 246.742C74.7469 228.957 53.9509 211.705 40.7002 196.048C27.4037 180.338 21.929 166.509 25.1118 155.433C28.2947 144.357 39.9837 136.56 59.0425 132.218C78.0356 127.891 104.023 127.078 135.195 129.665C197.523 134.838 280.352 153.584 368.892 184.696C457.432 215.807 534.854 253.37 588.45 288.931C615.254 306.716 636.051 323.968 649.301 339.624C662.598 355.335 668.072 369.164 664.889 380.24Z" stroke="white" stroke-width="2"/>
<path d="M679.561 283.473C679.295 295.137 670.05 306.089 652.897 315.837C635.799 325.554 611.12 333.908 580.621 340.481C519.637 353.624 435.612 359.6 343.01 355.272C250.408 350.945 166.833 337.135 106.577 318.325C76.4419 308.918 52.1955 298.278 35.575 286.985C18.9023 275.656 10.175 263.864 10.4405 252.2C10.7061 240.536 19.9513 229.584 37.1039 219.836C54.2026 210.119 78.8815 201.765 109.381 195.192C170.364 182.049 254.39 176.072 346.991 180.4C439.593 184.728 523.168 198.538 583.424 217.347C613.559 226.754 637.806 237.394 654.426 248.688C671.099 260.016 679.826 271.808 679.561 283.473Z" stroke="white" stroke-width="2"/>
<path d="M30 0L30 44" stroke="#FFED00" stroke-width="2"/>
<path d="M8 22L52 22" stroke="#FFED00" stroke-width="2"/>
<path d="M14.4434 37.5568L45.5561 6.44406" stroke="#FFED00" stroke-width="2"/>
<path d="M14.4434 6.44324L45.5561 37.5559" stroke="#FFED00" stroke-width="2"/>
<path d="M643.998 446V492" stroke="white" stroke-width="2"/>
<path d="M621 469L667 469" stroke="white" stroke-width="2"/>
<path d="M630.5 141V166" stroke="white" stroke-width="2"/>
<path d="M618 153.5L643 153.5" stroke="white" stroke-width="2"/>
<path d="M49.998 360V400" stroke="white" stroke-width="2"/>
<path d="M30 380L70 380" stroke="white" stroke-width="2"/>
<path d="M30 474V498" stroke="white" stroke-width="2"/>
<path d="M18 486L42 486" stroke="white" stroke-width="2"/>
<path d="M649.5 56V75" stroke="white" stroke-width="2"/>
<path d="M640 65.5L659 65.5" stroke="white" stroke-width="2"/>
</svg>
