<svg width="20" height="18" viewBox="0 0 20 18" fill="none" xmlns="http://www.w3.org/2000/svg">
<path d="M0.400391 15.3245C2.49007 15.4421 4.3174 14.9536 6.0995 13.66C4.29931 13.3525 3.05094 12.5293 2.37247 10.8286C2.89715 10.7562 3.35851 10.8919 3.90128 10.6748C2.12822 9.89681 0.97935 8.72985 0.934119 6.71254C1.49498 6.75777 1.92016 7.12867 2.58958 7.07439C0.961262 5.48226 0.463714 3.74538 1.48594 1.63762C3.18662 3.5916 5.1768 4.92139 7.61023 5.54558C7.74592 5.58177 7.87256 5.61795 8.00825 5.64509C8.63244 5.78983 9.37424 6.0974 9.75418 6.05217C10.4055 5.97075 9.75418 5.21992 9.91701 4.24293C10.4326 1.2034 13.7797 -0.180672 16.2584 1.60143C16.9821 2.12611 17.552 2.11707 18.2667 1.80045C18.6376 1.63762 19.0175 1.47479 19.4608 1.28482C19.3613 2.15325 18.6918 2.6327 18.1581 3.27498C18.7642 3.41067 19.2527 3.2388 19.8136 3.05787C19.6236 3.68206 19.1532 4.03486 18.728 4.37862C18.2847 4.73142 18.1129 5.10232 18.0948 5.68127C17.8234 14.4471 7.86352 21.2227 1.05172 15.8311C0.391351 15.3064 1.03363 15.8311 0.400391 15.3245Z" fill="white"/>
</svg>
