<svg width="168" height="66" viewBox="0 0 168 66" fill="none" xmlns="http://www.w3.org/2000/svg">
<path d="M102.14 49.3483C98.6035 49.3483 95.7264 46.8776 95.7264 43.843C95.7264 40.8083 98.6035 38.3377 102.14 38.3377C105.676 38.3377 108.553 40.8083 108.553 43.843C108.549 46.8776 105.676 49.3483 102.14 49.3483ZM102.14 34.7827C96.6432 34.7827 92.1699 38.8461 92.1699 43.843C92.1699 48.8359 96.6432 52.9032 102.14 52.9032C107.636 52.9032 112.109 48.8398 112.109 43.843C112.109 38.8461 107.636 34.7827 102.14 34.7827Z" fill="#1E1E1E"/>
<path d="M81.5977 32.205H85.3915V52.6531H88.9521V28.646H81.5977V32.205Z" fill="#1E1E1E"/>
<path d="M34.3533 49.4237C31.4966 49.4237 28.9551 47.9064 28.0261 45.6463C27.7887 45.0704 27.67 44.4666 27.67 43.8509C27.67 43.3068 27.7641 42.7666 27.9524 42.2502C28.7955 39.9107 31.4311 38.2742 34.3533 38.2742C37.9343 38.2742 40.6314 40.6693 40.6314 43.847C40.6314 47.0246 37.9343 49.4237 34.3533 49.4237ZM34.3533 34.7231C31.7053 34.7231 29.2538 35.6169 27.4081 37.1302V35.1442H23.8516V61.2605H27.4081V50.5558C29.262 52.0771 31.7258 52.9827 34.3533 52.9827C39.8701 52.9827 44.1919 48.9749 44.1919 43.8549C44.1919 38.731 39.8701 34.7231 34.3533 34.7231Z" fill="#1E1E1E"/>
<path d="M54.4487 38.3855C57.1744 38.0995 60.3789 39.021 60.8004 41.007L64.2833 40.2682C63.3952 36.1015 58.4799 34.3856 54.0803 34.8503C49.914 35.2873 47.2211 37.5275 47.2211 40.5502C47.2211 42.6554 48.3752 44.1926 50.4706 44.8758C51.9358 45.3564 53.7325 45.3961 55.4718 45.4359C59.8919 45.5391 60.6408 45.9522 60.6408 47.1478C60.6408 48.2004 59.0734 48.8955 57.731 49.1696C54.8989 49.7495 51.1255 48.975 50.3151 47.0763L47.041 48.4705C48.3261 51.4734 52.079 52.9192 55.7542 52.9192C56.6669 52.9192 57.5795 52.8318 58.4431 52.6531C62.0446 51.9183 64.1973 49.8607 64.1973 47.1478C64.1973 44.8996 62.9982 43.2473 60.825 42.5005C59.2657 41.9643 57.379 41.9206 55.5537 41.8769C54.0763 41.8411 52.5456 41.8094 51.5797 41.4916C50.8185 41.2414 50.7817 40.9951 50.7817 40.5463C50.7735 39.3308 52.6807 38.5721 54.4487 38.3855Z" fill="#1E1E1E"/>
<path d="M75.7339 35.1396H69.1939V38.6946H72.1774V49.0975H66.5664V52.6525H81.3449V49.0975H75.7339V35.1396Z" fill="#1E1E1E"/>
<path d="M75.7342 28.6494H72.1777V32.2044H75.7342V28.6494Z" fill="#1E1E1E"/>
<path d="M125.066 34.7827C122.59 34.7827 120.408 35.5414 118.726 36.8522V35.1402H115.17V52.653H118.726V44.4388C118.726 40.7885 121.272 38.3377 125.066 38.3377C129.036 38.3377 130.652 40.1251 130.652 44.5023V52.653H134.213V44.5023C134.209 38.2344 130.963 34.7827 125.066 34.7827Z" fill="#1E1E1E"/>
<path d="M15.4824 43.3544C15.4824 47.0047 12.9368 49.4554 9.14294 49.4554C5.17309 49.4554 3.5565 47.668 3.5565 43.2908V35.1401H0V43.2908C0 49.5587 3.24955 53.0104 9.14703 53.0104C11.6231 53.0104 13.8045 52.2518 15.4865 50.941V52.6529H19.043V35.1401H15.4865V43.3544H15.4824Z" fill="#1E1E1E"/>
<path d="M158.682 19.2796C156.423 17.3174 153.702 16.1417 150.89 15.7405V3.25635H146.556V15.7405C143.744 16.1377 141.027 17.3174 138.764 19.2796L133.447 23.8912L136.292 27.1602L141.608 22.5486C145.664 19.0294 151.782 19.0294 155.838 22.5486L161.154 27.1602L163.995 23.8912L158.682 19.2796Z" fill="#FFED00"/>
<path d="M138.769 16.5828C141.029 18.545 143.75 19.7207 146.562 20.1219V32.6061H150.896V20.1179C153.708 19.7207 156.425 18.541 158.688 16.5788L164.005 11.9672L161.164 8.69824L155.848 13.3098C151.792 16.829 145.674 16.829 141.618 13.3098L136.298 8.69824L133.453 11.9672L138.769 16.5828Z" fill="#FFED00"/>
</svg>
