<svg width="20" height="16" viewBox="0 0 20 16" fill="none" xmlns="http://www.w3.org/2000/svg">
<path d="M19.9957 2.35405H19.2049C18.9113 2.35405 18.4961 2.78148 18.4961 3.05505V12.9724C18.4961 13.2463 18.9113 13.6197 19.2049 13.6197H19.9957V15.9738H12.8306V13.6197H14.3303V3.19472H14.2568L10.7547 15.9738H8.04344L4.58652 3.19472H4.49904V13.6197H5.99872V15.9738H0V13.6197H0.768196C1.08446 13.6197 1.49968 13.2463 1.49968 12.9724V3.05498C1.49968 2.7814 1.08446 2.35397 0.768196 2.35397H0V0H7.50106L9.96382 9.24792H10.0318L12.5171 0H19.9957V2.35405Z" fill="white"/>
</svg>
