<svg width="18" height="18" viewBox="0 0 18 18" fill="none" xmlns="http://www.w3.org/2000/svg">
<path d="M14.6388 17.7529H3.36094C1.8025 17.7529 0.529297 16.4797 0.529297 14.9213V3.64341C0.529297 2.08496 1.8025 0.811768 3.36094 0.811768H14.6388C16.1973 0.811768 17.4705 2.08496 17.4705 3.64341V14.9213C17.4705 16.4867 16.2042 17.7529 14.6388 17.7529Z" fill="#1E1E1E"/>
<path d="M9.00265 13.6342C7.84077 13.6342 6.74846 13.182 5.92749 12.361C5.10652 11.54 4.6543 10.4477 4.6543 9.28585C4.6543 8.12397 5.10652 7.03167 5.92749 6.2107C6.74846 5.38973 7.84077 4.9375 9.00265 4.9375C10.1645 4.9375 11.2568 5.38973 12.0778 6.2107C12.8988 7.03167 13.351 8.12397 13.351 9.28585C13.351 10.4477 12.8988 11.54 12.0778 12.361C11.2499 13.182 10.1645 13.6342 9.00265 13.6342ZM9.00265 5.86283C7.1172 5.86283 5.57963 7.39345 5.57963 9.28585C5.57963 11.1713 7.11025 12.7089 9.00265 12.7089C10.8881 12.7089 12.4257 11.1783 12.4257 9.28585C12.4187 7.40041 10.8881 5.86283 9.00265 5.86283Z" fill="white"/>
<path d="M14.2001 4.79456C14.6612 4.79456 15.035 4.42077 15.035 3.95966C15.035 3.49856 14.6612 3.12476 14.2001 3.12476C13.739 3.12476 13.3652 3.49856 13.3652 3.95966C13.3652 4.42077 13.739 4.79456 14.2001 4.79456Z" fill="white"/>
</svg>
