<svg width="20" height="18" viewBox="0 0 20 18" fill="none" xmlns="http://www.w3.org/2000/svg">
<path d="M0.400391 15.3248C2.49007 15.4424 4.3174 14.9539 6.0995 13.6603C4.29931 13.3527 3.05094 12.5295 2.37247 10.8288C2.89715 10.7564 3.35851 10.8921 3.90128 10.675C2.12822 9.89705 0.97935 8.73009 0.934119 6.71279C1.49498 6.75802 1.92016 7.12891 2.58958 7.07463C0.961262 5.4825 0.463714 3.74563 1.48594 1.63786C3.18662 3.59184 5.1768 4.92164 7.61023 5.54583C7.74592 5.58201 7.87256 5.6182 8.00825 5.64533C8.63244 5.79007 9.37424 6.09764 9.75418 6.05241C10.4055 5.971 9.75418 5.22016 9.91701 4.24317C10.4326 1.20364 13.7797 -0.180427 16.2584 1.60168C16.9821 2.12636 17.552 2.11731 18.2667 1.80069C18.6376 1.63786 19.0175 1.47503 19.4608 1.28506C19.3613 2.1535 18.6918 2.63294 18.1581 3.27523C18.7642 3.41092 19.2527 3.23904 19.8136 3.05812C19.6236 3.68231 19.1532 4.03511 18.728 4.37886C18.2847 4.73167 18.1129 5.10256 18.0948 5.68152C17.8234 14.4473 7.86352 21.2229 1.05172 15.8314C0.391351 15.3067 1.03363 15.8314 0.400391 15.3248Z" fill="#1E1E1E"/>
</svg>
