<svg width="20" height="21" viewBox="0 0 20 21" fill="none" xmlns="http://www.w3.org/2000/svg">
<path d="M4.57916 6.89941H0.449219V20.0696H4.57916V6.89941Z" fill="#1E1E1E"/>
<path d="M15.7528 6.61382C15.6005 6.59479 15.4388 6.58528 15.277 6.57576C12.9646 6.4806 11.6609 7.8509 11.2042 8.44089C11.0805 8.60267 11.0234 8.69783 11.0234 8.69783V6.93737H7.07422V20.1075H11.0234H11.2042C11.2042 18.7657 11.2042 17.4335 11.2042 16.0918C11.2042 15.3685 11.2042 14.6453 11.2042 13.9221C11.2042 13.0276 11.1376 12.076 11.5848 11.2576C11.9654 10.5725 12.6506 10.2299 13.4214 10.2299C15.7052 10.2299 15.7528 12.2949 15.7528 12.4852C15.7528 12.4947 15.7528 12.5042 15.7528 12.5042V20.1646H19.8827V11.5717C19.8827 8.63121 18.3887 6.8993 15.7528 6.61382Z" fill="#1E1E1E"/>
<path d="M2.51521 5.19596C3.83961 5.19596 4.91325 4.12233 4.91325 2.79793C4.91325 1.47354 3.83961 0.399902 2.51521 0.399902C1.19082 0.399902 0.117188 1.47354 0.117188 2.79793C0.117188 4.12233 1.19082 5.19596 2.51521 5.19596Z" fill="#1E1E1E"/>
</svg>
